<svg width="41" height="40" viewBox="0 0 41 40" fill="none" xmlns="http://www.w3.org/2000/svg">
<g clip-path="url(#clip0_4308_5651)">
<path d="M20.5 40C31.5457 40 40.5 31.0457 40.5 20C40.5 8.95431 31.5457 0 20.5 0C9.45431 0 0.5 8.95431 0.5 20C0.5 31.0457 9.45431 40 20.5 40Z" fill="url(#paint0_linear_4308_5651)"/>
<path d="M25.7459 26.874H33.8999L32.5659 25L26.9159 17L20.8999 8.498L14.8839 17L9.2319 24.988L7.8999 26.874H16.0539L14.4039 24.474H12.5179L14.7179 21.378L18.5999 26.864H23.2219L27.0999 21.4L29.2899 24.494H27.4039L25.7459 26.874ZM21.9759 24.474H19.8259L16.1719 19.32L20.8999 12.636L25.6299 19.32L21.9759 24.474Z" fill="#10223D"/>
<path d="M25.346 26.274H33.5L32.166 24.4L26.516 16.4L20.5 7.898L14.484 16.4L8.832 24.388L7.5 26.274H15.654L14.004 23.874H12.118L14.318 20.778L18.2 26.264H22.822L26.7 20.8L28.89 23.894H27.004L25.346 26.274ZM21.576 23.874H19.426L15.772 18.72L20.5 12.036L25.23 18.72L21.576 23.874Z" fill="white"/>
<path opacity="0.4" d="M20.7001 3.6L21.2861 3.938V4.614L20.7001 4.954L20.1141 4.614V3.938L20.7001 3.6ZM17.3261 4.25L17.4441 4.916L18.0801 5.148L18.5981 4.712L18.4801 4.046L17.8441 3.816L17.3261 4.25ZM14.6401 5.04L14.8701 5.676L15.5381 5.794L15.9721 5.276L15.7401 4.64L15.0741 4.522L14.6401 5.04ZM12.1301 6.286L12.4701 6.872H13.1461L13.4841 6.286L13.1461 5.7H12.4701L12.1301 6.286ZM9.8761 7.948L10.3121 8.466L10.9781 8.348L11.2101 7.712L10.7741 7.2L10.1001 7.312L9.8761 7.948ZM7.9441 9.974L8.4641 10.41L9.1001 10.178L9.2161 9.512L8.7001 9.078L8.0641 9.308L7.9441 9.974ZM6.3941 12.308L6.9801 12.646L7.5661 12.308V11.63L6.9801 11.292L6.3941 11.63V12.308ZM5.2741 14.874L5.9101 15.106L6.4281 14.67L6.3101 14L5.6741 13.768L5.1561 14.2L5.2741 14.874ZM4.6141 17.6L5.2801 17.718L5.7161 17.2L5.4841 16.564L4.8181 16.448L4.3841 16.96L4.6141 17.6ZM4.4381 20.4H5.1141L5.4541 19.8L5.1141 19.214H4.4381L4.1001 19.8L4.4381 20.4ZM4.7501 23.184L5.4161 23.066L5.6481 22.43L5.2121 21.912L4.5461 22.03L4.3161 22.666L4.7501 23.184ZM5.5401 25.86L6.1761 25.63L6.2941 24.962L5.7761 24.528L5.1401 24.76L5.0221 25.426L5.5401 25.86ZM6.7861 28.37L7.3721 28.03V27.354L6.7861 27.016L6.2001 27.354V28.03L6.7861 28.37ZM8.4481 30.624L8.9661 30.188L8.8481 29.522L8.2121 29.29L7.7001 29.726L7.8181 30.392L8.4481 30.624ZM10.4741 32.556L10.9101 32.036L10.6781 31.4L10.0121 31.284L9.5781 31.8L9.8081 32.436L10.4741 32.556ZM12.8081 34.106L13.1461 33.52L12.8081 32.934H12.1301L11.7921 33.52L12.1301 34.106H12.8081ZM15.3741 35.226L15.6061 34.6L15.1701 34.082L14.5001 34.2L14.2681 34.836L14.7001 35.344L15.3741 35.226ZM18.1001 35.886L18.2181 35.22L17.7001 34.784L17.0641 35.016L16.9481 35.682L17.4661 36.116L18.1001 35.886ZM20.9001 36.062V35.386L20.3001 35.046L19.7141 35.386V36.062L20.3001 36.4L20.9001 36.062ZM23.6841 35.75L23.5661 35.084L22.9301 34.852L22.4121 35.288L22.5301 35.954L23.1661 36.184L23.6841 35.75ZM26.3701 34.96L26.1401 34.324L25.4721 34.206L25.0381 34.724L25.2701 35.36L25.9361 35.478L26.3701 34.96ZM28.8801 33.714L28.5401 33.128H27.8641L27.5261 33.714L27.8641 34.3H28.5401L28.8801 33.714ZM31.1341 32.052L30.6981 31.534L30.0321 31.652L29.8001 32.288L30.2361 32.806L30.9021 32.688L31.1341 32.052ZM33.0661 30.026L32.5461 29.59L31.9001 29.822L31.7841 30.488L32.3021 30.922L32.9381 30.692L33.0661 30.026ZM34.6161 27.692L34.0301 27.354L33.4441 27.692V28.37L34.0301 28.708L34.6161 28.37V27.692ZM35.7361 25.126L35.1001 24.894L34.5821 25.33L34.7001 26L35.3361 26.232L35.8541 25.796L35.7361 25.126ZM36.3961 22.404L35.7301 22.286L35.2941 22.806L35.5261 23.442L36.1921 23.558L36.6261 23.04L36.3961 22.404ZM36.5721 19.604H35.8961L35.5561 20.19L35.8961 20.776H36.5721L36.9001 20.2L36.5721 19.604ZM36.2601 16.82L35.5941 16.938L35.3621 17.574L35.7981 18.092L36.4641 17.974L36.6941 17.338L36.2601 16.82ZM35.4601 14.14L34.8241 14.37L34.7001 15.038L35.2181 15.472L35.8541 15.24L35.9721 14.574L35.4601 14.14ZM34.2141 11.63L33.6281 11.97V12.646L34.2141 12.984L34.8001 12.646V11.97L34.2141 11.63ZM32.5521 9.376L32.0341 9.812L32.1521 10.478L32.7881 10.71L33.3001 10.274L33.1881 9.6L32.5521 9.376ZM30.5261 7.444L30.1001 7.964L30.3221 8.6L30.9881 8.716L31.4221 8.2L31.1921 7.564L30.5261 7.444ZM28.1921 5.894L27.8541 6.48L28.1921 7.066H28.8701L29.2081 6.48L28.8701 5.894H28.1921ZM25.6261 4.774L25.3941 5.41L25.8301 5.928L26.4961 5.81L26.7281 5.174L26.3001 4.656L25.6261 4.774ZM22.9001 4.114L22.7821 4.78L23.3021 5.216L23.9381 4.984L24.0541 4.318L23.5361 3.884L22.9001 4.114Z" fill="white"/>
<path d="M20.5 2.4C23.981 2.4 27.3837 3.43222 30.278 5.36613C33.1723 7.30005 35.4282 10.0488 36.7603 13.2648C38.0924 16.4808 38.4409 20.0195 37.7618 23.4336C37.0827 26.8477 35.4065 29.9837 32.9451 32.4451C30.4837 34.9065 27.3477 36.5827 23.9336 37.2618C20.5195 37.9409 16.9808 37.5924 13.7648 36.2603C10.5488 34.9282 7.80006 32.6723 5.86614 29.778C3.93223 26.8837 2.90001 23.4809 2.90001 20C2.9053 15.3338 4.76128 10.8603 8.06078 7.56077C11.3603 4.26127 15.8338 2.40529 20.5 2.4ZM20.5 0C16.5444 0 12.6776 1.17298 9.3886 3.37061C6.09962 5.56824 3.53617 8.69181 2.02242 12.3463C0.508666 16.0009 0.112599 20.0222 0.884303 23.9018C1.65601 27.7814 3.56082 31.3451 6.35787 34.1421C9.15492 36.9392 12.7186 38.844 16.5982 39.6157C20.4778 40.3874 24.4992 39.9913 28.1537 38.4776C31.8082 36.9638 34.9318 34.4004 37.1294 31.1114C39.327 27.8224 40.5 23.9556 40.5 20C40.5 14.6957 38.3929 9.60859 34.6421 5.85786C30.8914 2.10714 25.8043 0 20.5 0V0Z" fill="#0A2C70"/>
<path d="M20.5001 3C23.8624 3 27.1492 3.99703 29.9448 5.86502C32.7404 7.733 34.9194 10.388 36.2061 13.4944C37.4927 16.6007 37.8294 20.0189 37.1735 23.3165C36.5175 26.6142 34.8984 29.6433 32.5209 32.0208C30.1434 34.3983 27.1143 36.0174 23.8166 36.6733C20.519 37.3293 17.1008 36.9926 13.9945 35.706C10.8881 34.4193 8.23311 32.2403 6.36512 29.4447C4.49714 26.6491 3.50011 23.3623 3.50011 20C3.5054 15.4929 5.29816 11.172 8.48514 7.98503C11.6721 4.79806 15.993 3.00529 20.5001 3ZM20.5001 2.6C17.0587 2.6 13.6946 3.62049 10.8332 5.53243C7.97177 7.44436 5.74157 10.1619 4.4246 13.3413C3.10764 16.5207 2.76306 20.0193 3.43444 23.3946C4.10582 26.7698 5.76301 29.8702 8.19645 32.3037C10.6299 34.7371 13.7303 36.3943 17.1055 37.0657C20.4808 37.737 23.9794 37.3925 27.1588 36.0755C30.3382 34.7585 33.0557 32.5283 34.9677 29.6669C36.8796 26.8055 37.9001 23.4414 37.9001 20C37.9001 15.3852 36.0669 10.9595 32.8038 7.69634C29.5406 4.43321 25.1149 2.6 20.5001 2.6Z" fill="#0A3B70"/>
<path d="M20.5 2.2C24.0205 2.2 27.462 3.24395 30.3892 5.19984C33.3164 7.15573 35.5978 9.93571 36.9451 13.1882C38.2923 16.4408 38.6448 20.0197 37.958 23.4726C37.2712 26.9255 35.5759 30.0971 33.0865 32.5865C30.5971 35.0759 27.4255 36.7712 23.9726 37.458C20.5198 38.1448 16.9408 37.7923 13.6882 36.4451C10.4357 35.0978 7.65574 32.8163 5.69985 29.8891C3.74396 26.962 2.70001 23.5205 2.70001 20C2.70583 15.2809 4.58305 10.7568 7.91994 7.41993C11.2568 4.08304 15.7809 2.20582 20.5 2.2ZM20.5 0C16.5444 0 12.6776 1.17298 9.3886 3.37061C6.09962 5.56824 3.53617 8.69181 2.02242 12.3463C0.508666 16.0009 0.112599 20.0222 0.884303 23.9018C1.65601 27.7814 3.56082 31.3451 6.35787 34.1421C9.15492 36.9392 12.7186 38.844 16.5982 39.6157C20.4778 40.3874 24.4992 39.9913 28.1537 38.4776C31.8082 36.9638 34.9318 34.4004 37.1294 31.1114C39.327 27.8224 40.5 23.9556 40.5 20C40.5 14.6957 38.3929 9.60859 34.6421 5.85786C30.8914 2.10714 25.8043 0 20.5 0V0Z" fill="#2B7EF7"/>
<g style="mix-blend-mode:overlay">
<g style="mix-blend-mode:overlay" opacity="0.4">
<g style="mix-blend-mode:overlay" opacity="0.4">
<path d="M20.5999 0.5H20.3999V1.624H20.5999V0.5Z" fill="white"/>
</g>
<g style="mix-blend-mode:overlay" opacity="0.4">
<path d="M18.9734 0.5175L18.7734 0.5355L18.8746 1.6595L19.0746 1.6415L18.9734 0.5175Z" fill="white"/>
</g>
<g style="mix-blend-mode:overlay" opacity="0.4">
<path d="M17.2133 0.778655L17.0164 0.813385L17.2115 1.92031L17.4085 1.88558L17.2133 0.778655Z" fill="white"/>
</g>
<g style="mix-blend-mode:overlay" opacity="0.4">
<path d="M15.5487 1.13942L15.3555 1.19118L15.6464 2.27689L15.8396 2.22512L15.5487 1.13942Z" fill="white"/>
</g>
<g style="mix-blend-mode:overlay" opacity="0.4">
<path d="M13.924 1.64198L13.7361 1.71038L14.1205 2.7666L14.3085 2.69819L13.924 1.64198Z" fill="white"/>
</g>
<g style="mix-blend-mode:overlay" opacity="0.4">
<path d="M12.3502 2.28504L12.1689 2.36953L12.6438 3.3883L12.8251 3.30381L12.3502 2.28504Z" fill="white"/>
</g>
<g style="mix-blend-mode:overlay" opacity="0.4">
<path d="M10.8385 3.06299L10.6653 3.16299L11.2273 4.1364L11.4005 4.0364L10.8385 3.06299Z" fill="white"/>
</g>
<g style="mix-blend-mode:overlay" opacity="0.4">
<path d="M9.39652 3.96937L9.23267 4.08405L9.87721 5.00489L10.0411 4.89021L9.39652 3.96937Z" fill="white"/>
</g>
<g style="mix-blend-mode:overlay" opacity="0.4">
<path d="M8.04066 4.99786L7.88745 5.12642L8.60995 5.98745L8.76316 5.8589L8.04066 4.99786Z" fill="white"/>
</g>
<g style="mix-blend-mode:overlay" opacity="0.4">
<path d="M6.78034 6.1399L6.63892 6.28132L7.4337 7.07611L7.57512 6.93469L6.78034 6.1399Z" fill="white"/>
</g>
<g style="mix-blend-mode:overlay" opacity="0.4">
<path d="M5.6249 7.38949L5.49634 7.54269L6.35737 8.26519L6.48593 8.11198L5.6249 7.38949Z" fill="white"/>
</g>
<g style="mix-blend-mode:overlay" opacity="0.4">
<path d="M4.58368 8.73268L4.46899 8.89653L5.38983 9.54107L5.50452 9.37722L4.58368 8.73268Z" fill="white"/>
</g>
<g style="mix-blend-mode:overlay" opacity="0.4">
<path d="M3.66421 10.1627L3.56421 10.3359L4.53762 10.8979L4.63762 10.7247L3.66421 10.1627Z" fill="white"/>
</g>
<g style="mix-blend-mode:overlay" opacity="0.4">
<path d="M2.86794 11.6673L2.78345 11.8485L3.80222 12.3234L3.88671 12.1421L2.86794 11.6673Z" fill="white"/>
</g>
<g style="mix-blend-mode:overlay" opacity="0.4">
<path d="M2.20854 13.2355L2.14014 13.4235L3.19635 13.8079L3.26475 13.62L2.20854 13.2355Z" fill="white"/>
</g>
<g style="mix-blend-mode:overlay" opacity="0.4">
<path d="M1.69068 14.8558L1.63892 15.049L2.72462 15.3399L2.77638 15.1467L1.69068 14.8558Z" fill="white"/>
</g>
<g style="mix-blend-mode:overlay" opacity="0.4">
<path d="M1.31451 16.5144L1.27979 16.7114L2.38671 16.9066L2.42144 16.7096L1.31451 16.5144Z" fill="white"/>
</g>
<g style="mix-blend-mode:overlay" opacity="0.4">
<path d="M1.08387 18.2021L1.06641 18.4014L2.18611 18.4995L2.20358 18.3003L1.08387 18.2021Z" fill="white"/>
</g>
<g style="mix-blend-mode:overlay" opacity="0.4">
<path d="M2.124 19.9H1V20.1H2.124V19.9Z" fill="white"/>
</g>
<g style="mix-blend-mode:overlay" opacity="0.4">
<path d="M2.1846 21.5017L1.06494 21.6004L1.08251 21.7997L2.20217 21.7009L2.1846 21.5017Z" fill="white"/>
</g>
<g style="mix-blend-mode:overlay" opacity="0.4">
<path d="M2.3835 23.0927L1.27661 23.288L1.31138 23.485L2.41826 23.2896L2.3835 23.0927Z" fill="white"/>
</g>
<g style="mix-blend-mode:overlay" opacity="0.4">
<path d="M2.72584 24.6594L1.64014 24.9503L1.6919 25.1435L2.7776 24.8526L2.72584 24.6594Z" fill="white"/>
</g>
<g style="mix-blend-mode:overlay" opacity="0.4">
<path d="M3.19691 26.1932L2.14062 26.5775L2.209 26.7654L3.26528 26.3812L3.19691 26.1932Z" fill="white"/>
</g>
<g style="mix-blend-mode:overlay" opacity="0.4">
<path d="M3.80174 27.6779L2.78271 28.1523L2.86711 28.3336L3.88613 27.8593L3.80174 27.6779Z" fill="white"/>
</g>
<g style="mix-blend-mode:overlay" opacity="0.4">
<path d="M4.53547 29.1018L3.56226 29.6641L3.66232 29.8373L4.63553 29.2749L4.53547 29.1018Z" fill="white"/>
</g>
<g style="mix-blend-mode:overlay" opacity="0.4">
<path d="M5.3897 30.4569L4.46875 31.1013L4.58341 31.2652L5.50436 30.6208L5.3897 30.4569Z" fill="white"/>
</g>
<g style="mix-blend-mode:overlay" opacity="0.4">
<path d="M6.35993 31.7343L5.49902 32.4569L5.62761 32.6101L6.48851 31.8875L6.35993 31.7343Z" fill="white"/>
</g>
<g style="mix-blend-mode:overlay" opacity="0.4">
<path d="M7.43493 32.925L6.64014 33.7198L6.78156 33.8613L7.57635 33.0665L7.43493 32.925Z" fill="white"/>
</g>
<g style="mix-blend-mode:overlay" opacity="0.4">
<path d="M8.61107 34.015L7.88843 34.8759L8.04161 35.0045L8.76426 34.1436L8.61107 34.015Z" fill="white"/>
</g>
<g style="mix-blend-mode:overlay" opacity="0.4">
<path d="M9.87753 34.9968L9.23315 35.9178L9.39702 36.0324L10.0414 35.1115L9.87753 34.9968Z" fill="white"/>
</g>
<g style="mix-blend-mode:overlay" opacity="0.4">
<path d="M11.2247 35.8612L10.6624 36.8344L10.8355 36.9345L11.3979 35.9613L11.2247 35.8612Z" fill="white"/>
</g>
<g style="mix-blend-mode:overlay" opacity="0.4">
<path d="M12.6435 36.6114L12.1692 37.6304L12.3505 37.7148L12.8248 36.6958L12.6435 36.6114Z" fill="white"/>
</g>
<g style="mix-blend-mode:overlay" opacity="0.4">
<path d="M14.1215 37.2331L13.7373 38.2894L13.9253 38.3578L14.3095 37.3015L14.1215 37.2331Z" fill="white"/>
</g>
<g style="mix-blend-mode:overlay" opacity="0.4">
<path d="M15.6456 37.7244L15.3547 38.8101L15.5479 38.8619L15.8388 37.7762L15.6456 37.7244Z" fill="white"/>
</g>
<g style="mix-blend-mode:overlay" opacity="0.4">
<path d="M17.2098 38.0757L17.0144 39.1826L17.2114 39.2174L17.4067 38.1105L17.2098 38.0757Z" fill="white"/>
</g>
<g style="mix-blend-mode:overlay" opacity="0.4">
<path d="M18.7997 38.2948L18.7009 39.4144L18.9002 39.432L18.9989 38.3123L18.7997 38.2948Z" fill="white"/>
</g>
<g style="mix-blend-mode:overlay" opacity="0.4">
<path d="M20.5999 38.376H20.3999V39.5H20.5999V38.376Z" fill="white"/>
</g>
<g style="mix-blend-mode:overlay" opacity="0.4">
<path d="M22.3894 38.3845L22.1895 38.4025L22.2906 39.5265L22.4906 39.5085L22.3894 38.3845Z" fill="white"/>
</g>
<g style="mix-blend-mode:overlay" opacity="0.4">
<path d="M23.7885 38.0781L23.5916 38.1128L23.7867 39.2197L23.9837 39.185L23.7885 38.0781Z" fill="white"/>
</g>
<g style="mix-blend-mode:overlay" opacity="0.4">
<path d="M25.3533 37.7234L25.1602 37.7751L25.4511 38.8608L25.6443 38.8091L25.3533 37.7234Z" fill="white"/>
</g>
<g style="mix-blend-mode:overlay" opacity="0.4">
<path d="M26.8798 37.2343L26.6919 37.3027L27.0763 38.3589L27.2643 38.2905L26.8798 37.2343Z" fill="white"/>
</g>
<g style="mix-blend-mode:overlay" opacity="0.4">
<path d="M28.3558 36.6146L28.1746 36.6991L28.6494 37.7178L28.8307 37.6333L28.3558 36.6146Z" fill="white"/>
</g>
<g style="mix-blend-mode:overlay" opacity="0.4">
<path d="M29.7753 35.8636L29.6021 35.9636L30.1641 36.937L30.3373 36.837L29.7753 35.8636Z" fill="white"/>
</g>
<g style="mix-blend-mode:overlay" opacity="0.4">
<path d="M31.1223 34.9999L30.9585 35.1145L31.603 36.0354L31.7669 35.9207L31.1223 34.9999Z" fill="white"/>
</g>
<g style="mix-blend-mode:overlay" opacity="0.4">
<path d="M32.3893 34.0148L32.2361 34.1434L32.9586 35.0044L33.1118 34.8758L32.3893 34.0148Z" fill="white"/>
</g>
<g style="mix-blend-mode:overlay" opacity="0.4">
<path d="M33.5648 32.9239L33.4233 33.0653L34.2181 33.8601L34.3595 33.7187L33.5648 32.9239Z" fill="white"/>
</g>
<g style="mix-blend-mode:overlay" opacity="0.4">
<path d="M34.6417 31.7345L34.5132 31.8877L35.3742 32.6102L35.5028 32.457L34.6417 31.7345Z" fill="white"/>
</g>
<g style="mix-blend-mode:overlay" opacity="0.4">
<path d="M35.6096 30.4542L35.4949 30.618L36.4157 31.2626L36.5304 31.0987L35.6096 30.4542Z" fill="white"/>
</g>
<g style="mix-blend-mode:overlay" opacity="0.4">
<path d="M36.465 29.1021L36.365 29.2753L37.3384 29.8373L37.4384 29.6641L36.465 29.1021Z" fill="white"/>
</g>
<g style="mix-blend-mode:overlay" opacity="0.4">
<path d="M37.1956 27.6737L37.1111 27.855L38.1299 28.3299L38.2143 28.1486L37.1956 27.6737Z" fill="white"/>
</g>
<g style="mix-blend-mode:overlay" opacity="0.4">
<path d="M37.8023 26.1912L37.7339 26.3791L38.7901 26.7636L38.8585 26.5756L37.8023 26.1912Z" fill="white"/>
</g>
<g style="mix-blend-mode:overlay" opacity="0.4">
<path d="M38.2752 24.6598L38.2234 24.853L39.3091 25.1439L39.3609 24.9507L38.2752 24.6598Z" fill="white"/>
</g>
<g style="mix-blend-mode:overlay" opacity="0.4">
<path d="M38.6136 23.093L38.5789 23.29L39.6858 23.4852L39.7205 23.2882L38.6136 23.093Z" fill="white"/>
</g>
<g style="mix-blend-mode:overlay" opacity="0.4">
<path d="M38.8182 21.5045L38.8008 21.7037L39.9205 21.8019L39.938 21.6026L38.8182 21.5045Z" fill="white"/>
</g>
<g style="mix-blend-mode:overlay" opacity="0.4">
<path d="M40 19.9H38.876V20.1H40V19.9Z" fill="white"/>
</g>
<g style="mix-blend-mode:overlay" opacity="0.4">
<path d="M39.9168 18.2036L38.7971 18.3024L38.8147 18.5016L39.9343 18.4029L39.9168 18.2036Z" fill="white"/>
</g>
<g style="mix-blend-mode:overlay" opacity="0.4">
<path d="M39.6845 16.5193L38.5776 16.7147L38.6124 16.9116L39.7193 16.7162L39.6845 16.5193Z" fill="white"/>
</g>
<g style="mix-blend-mode:overlay" opacity="0.4">
<path d="M39.3098 14.8568L38.2241 15.1477L38.2759 15.3409L39.3616 15.05L39.3098 14.8568Z" fill="white"/>
</g>
<g style="mix-blend-mode:overlay" opacity="0.4">
<path d="M38.7894 13.2384L37.7332 13.6227L37.8015 13.8106L38.8578 13.4264L38.7894 13.2384Z" fill="white"/>
</g>
<g style="mix-blend-mode:overlay" opacity="0.4">
<path d="M38.1303 11.6691L37.1113 12.1434L37.1957 12.3248L38.2147 11.8504L38.1303 11.6691Z" fill="white"/>
</g>
<g style="mix-blend-mode:overlay" opacity="0.4">
<path d="M37.3367 10.1664L36.3635 10.7287L36.4636 10.9019L37.4368 10.3396L37.3367 10.1664Z" fill="white"/>
</g>
<g style="mix-blend-mode:overlay" opacity="0.4">
<path d="M36.4163 8.73327L35.4954 9.37766L35.61 9.54153L36.531 8.89715L36.4163 8.73327Z" fill="white"/>
</g>
<g style="mix-blend-mode:overlay" opacity="0.4">
<path d="M35.3724 7.38634L34.5115 8.10899L34.6401 8.26217L35.501 7.53953L35.3724 7.38634Z" fill="white"/>
</g>
<g style="mix-blend-mode:overlay" opacity="0.4">
<path d="M34.2189 6.13874L33.4241 6.93353L33.5655 7.07495L34.3603 6.28016L34.2189 6.13874Z" fill="white"/>
</g>
<g style="mix-blend-mode:overlay" opacity="0.4">
<path d="M32.9585 4.99908L32.2358 5.85999L32.389 5.98857L33.1117 5.12766L32.9585 4.99908Z" fill="white"/>
</g>
<g style="mix-blend-mode:overlay" opacity="0.4">
<path d="M31.6029 3.96913L30.9585 4.89008L31.1224 5.00474L31.7668 4.08379L31.6029 3.96913Z" fill="white"/>
</g>
<g style="mix-blend-mode:overlay" opacity="0.4">
<path d="M30.1637 3.06182L29.6013 4.03504L29.7745 4.1351L30.3368 3.16188L30.1637 3.06182Z" fill="white"/>
</g>
<g style="mix-blend-mode:overlay" opacity="0.4">
<path d="M28.6489 2.28254L28.1746 3.30156L28.3559 3.38596L28.8302 2.36694L28.6489 2.28254Z" fill="white"/>
</g>
<g style="mix-blend-mode:overlay" opacity="0.4">
<path d="M27.0749 1.64037L26.6907 2.69665L26.8786 2.76502L27.2629 1.70874L27.0749 1.64037Z" fill="white"/>
</g>
<g style="mix-blend-mode:overlay" opacity="0.4">
<path d="M25.4518 1.13785L25.1609 2.22355L25.3541 2.27531L25.645 1.18961L25.4518 1.13785Z" fill="white"/>
</g>
<g style="mix-blend-mode:overlay" opacity="0.4">
<path d="M23.7867 0.778334L23.5913 1.88522L23.7883 1.91999L23.9836 0.813098L23.7867 0.778334Z" fill="white"/>
</g>
<g style="mix-blend-mode:overlay" opacity="0.4">
<path d="M22.0992 0.566718L22.0005 1.68637L22.1997 1.70394L22.2985 0.584288L22.0992 0.566718Z" fill="white"/>
</g>
</g>
<g style="mix-blend-mode:overlay" opacity="0.4">
<g style="mix-blend-mode:overlay" opacity="0.4">
<path d="M19.7928 0.513423L19.593 0.521729L19.6397 1.64476L19.8395 1.63645L19.7928 0.513423Z" fill="white"/>
</g>
<g style="mix-blend-mode:overlay" opacity="0.4">
<path d="M18.0963 0.647936L17.8979 0.673592L18.0421 1.78831L18.2405 1.76265L18.0963 0.647936Z" fill="white"/>
</g>
<g style="mix-blend-mode:overlay" opacity="0.4">
<path d="M16.4187 0.932829L16.2234 0.975708L16.4644 2.07357L16.6597 2.03069L16.4187 0.932829Z" fill="white"/>
</g>
<g style="mix-blend-mode:overlay" opacity="0.4">
<path d="M14.7741 1.36059L14.5833 1.42033L14.919 2.49302L15.1099 2.43328L14.7741 1.36059Z" fill="white"/>
</g>
<g style="mix-blend-mode:overlay" opacity="0.4">
<path d="M13.1715 1.93075L12.9866 2.00684L13.4142 3.04633L13.5991 2.97024L13.1715 1.93075Z" fill="white"/>
</g>
<g style="mix-blend-mode:overlay" opacity="0.4">
<path d="M11.6234 2.63741L11.4458 2.72935L11.9625 3.72753L12.1402 3.63558L11.6234 2.63741Z" fill="white"/>
</g>
<g style="mix-blend-mode:overlay" opacity="0.4">
<path d="M10.1143 3.41656L9.94629 3.52456L10.5532 4.46872L10.7212 4.36072L10.1143 3.41656Z" fill="white"/>
</g>
<g style="mix-blend-mode:overlay" opacity="0.4">
<path d="M8.74342 4.443L8.58447 4.56439L9.26669 5.45767L9.42564 5.33628L8.74342 4.443Z" fill="white"/>
</g>
<g style="mix-blend-mode:overlay" opacity="0.4">
<path d="M7.42996 5.52612L7.28223 5.66093L8.03985 6.49122L8.18759 6.35641L7.42996 5.52612Z" fill="white"/>
</g>
<g style="mix-blend-mode:overlay" opacity="0.4">
<path d="M6.2209 6.71947L6.08545 6.86662L6.91243 7.62785L7.04788 7.48071L6.2209 6.71947Z" fill="white"/>
</g>
<g style="mix-blend-mode:overlay" opacity="0.4">
<path d="M5.11869 8.01414L4.99658 8.17253L5.88676 8.8588L6.00887 8.7004L5.11869 8.01414Z" fill="white"/>
</g>
<g style="mix-blend-mode:overlay" opacity="0.4">
<path d="M4.13003 9.40001L4.02222 9.56847L4.96892 10.1744L5.07674 10.0059L4.13003 9.40001Z" fill="white"/>
</g>
<g style="mix-blend-mode:overlay" opacity="0.4">
<path d="M3.27125 10.8686L3.17847 11.0458L4.1742 11.5672L4.26698 11.39L3.27125 10.8686Z" fill="white"/>
</g>
<g style="mix-blend-mode:overlay" opacity="0.4">
<path d="M2.53908 12.4054L2.46216 12.59L3.4997 13.0223L3.57662 12.8377L2.53908 12.4054Z" fill="white"/>
</g>
<g style="mix-blend-mode:overlay" opacity="0.4">
<path d="M1.94653 13.9979L1.88599 14.1885L2.95725 14.5288L3.01779 14.3381L1.94653 13.9979Z" fill="white"/>
</g>
<g style="mix-blend-mode:overlay" opacity="0.4">
<path d="M1.49417 15.6402L1.45044 15.8353L2.54724 16.0811L2.59097 15.8859L1.49417 15.6402Z" fill="white"/>
</g>
<g style="mix-blend-mode:overlay" opacity="0.4">
<path d="M1.18476 17.3109L1.1582 17.5091L2.27225 17.6583L2.29881 17.4601L1.18476 17.3109Z" fill="white"/>
</g>
<g style="mix-blend-mode:overlay" opacity="0.4">
<path d="M1.0248 19.0054L1.01562 19.2051L2.13844 19.2567L2.14762 19.0569L1.0248 19.0054Z" fill="white"/>
</g>
<g style="mix-blend-mode:overlay" opacity="0.4">
<path d="M2.13643 20.6607L1.01343 20.708L1.02184 20.9078L2.14484 20.8606L2.13643 20.6607Z" fill="white"/>
</g>
<g style="mix-blend-mode:overlay" opacity="0.4">
<path d="M2.26027 22.2588L1.14551 22.4026L1.17109 22.6009L2.28586 22.4572L2.26027 22.2588Z" fill="white"/>
</g>
<g style="mix-blend-mode:overlay" opacity="0.4">
<path d="M2.5306 23.8386L1.43286 24.0802L1.47584 24.2755L2.57358 24.034L2.5306 23.8386Z" fill="white"/>
</g>
<g style="mix-blend-mode:overlay" opacity="0.4">
<path d="M2.93163 25.3919L1.85889 25.7274L1.9186 25.9183L2.99134 25.5828L2.93163 25.3919Z" fill="white"/>
</g>
<g style="mix-blend-mode:overlay" opacity="0.4">
<path d="M3.46891 26.9024L2.4292 27.3294L2.50519 27.5144L3.5449 27.0874L3.46891 26.9024Z" fill="white"/>
</g>
<g style="mix-blend-mode:overlay" opacity="0.4">
<path d="M4.13545 28.3605L3.13745 28.8776L3.22946 29.0552L4.22746 28.5381L4.13545 28.3605Z" fill="white"/>
</g>
<g style="mix-blend-mode:overlay" opacity="0.4">
<path d="M4.92534 29.754L3.97632 30.3562L4.08348 30.5251L5.03251 29.9228L4.92534 29.754Z" fill="white"/>
</g>
<g style="mix-blend-mode:overlay" opacity="0.4">
<path d="M5.90017 30.9165L5.01221 31.6021L5.13421 31.7601L6.02217 31.0745L5.90017 30.9165Z" fill="white"/>
</g>
<g style="mix-blend-mode:overlay" opacity="0.4">
<path d="M6.85774 32.3094L6.02759 33.0672L6.16242 33.2149L6.99258 32.4571L6.85774 32.3094Z" fill="white"/>
</g>
<g style="mix-blend-mode:overlay" opacity="0.4">
<path d="M7.98156 33.4515L7.22046 34.2786L7.36763 34.414L8.12873 33.5869L7.98156 33.4515Z" fill="white"/>
</g>
<g style="mix-blend-mode:overlay" opacity="0.4">
<path d="M9.12558 34.4958L8.43994 35.3837L8.59794 35.5057L9.28358 34.6178L9.12558 34.4958Z" fill="white"/>
</g>
<g style="mix-blend-mode:overlay" opacity="0.4">
<path d="M10.5087 35.4203L9.90259 36.3669L10.071 36.4747L10.6771 35.5281L10.5087 35.4203Z" fill="white"/>
</g>
<g style="mix-blend-mode:overlay" opacity="0.4">
<path d="M11.8894 36.2338L11.3679 37.2295L11.5451 37.3223L12.0665 36.3266L11.8894 36.2338Z" fill="white"/>
</g>
<g style="mix-blend-mode:overlay" opacity="0.4">
<path d="M13.3372 36.9213L12.905 37.9589L13.0897 38.0358L13.5218 36.9982L13.3372 36.9213Z" fill="white"/>
</g>
<g style="mix-blend-mode:overlay" opacity="0.4">
<path d="M14.8398 37.4825L14.4995 38.5538L14.6901 38.6143L15.0304 37.543L14.8398 37.4825Z" fill="white"/>
</g>
<g style="mix-blend-mode:overlay" opacity="0.4">
<path d="M16.3862 37.9133L16.1404 39.0101L16.3355 39.0539L16.5813 37.957L16.3862 37.9133Z" fill="white"/>
</g>
<g style="mix-blend-mode:overlay" opacity="0.4">
<path d="M17.9622 38.2013L17.8127 39.3153L18.011 39.3419L18.1604 38.2279L17.9622 38.2013Z" fill="white"/>
</g>
<g style="mix-blend-mode:overlay" opacity="0.4">
<path d="M19.5569 38.3519L19.5054 39.4748L19.7052 39.4839L19.7567 38.3611L19.5569 38.3519Z" fill="white"/>
</g>
<g style="mix-blend-mode:overlay" opacity="0.4">
<path d="M21.361 38.3556L21.1611 38.364L21.2078 39.487L21.4076 39.4787L21.361 38.3556Z" fill="white"/>
</g>
<g style="mix-blend-mode:overlay" opacity="0.4">
<path d="M22.9566 38.2122L22.7583 38.2378L22.9025 39.3525L23.1008 39.3269L22.9566 38.2122Z" fill="white"/>
</g>
<g style="mix-blend-mode:overlay" opacity="0.4">
<path d="M24.5337 37.9305L24.3384 37.9734L24.5794 39.0713L24.7747 39.0284L24.5337 37.9305Z" fill="white"/>
</g>
<g style="mix-blend-mode:overlay" opacity="0.4">
<path d="M26.0815 37.5085L25.8906 37.5682L26.2264 38.6409L26.4172 38.5811L26.0815 37.5085Z" fill="white"/>
</g>
<g style="mix-blend-mode:overlay" opacity="0.4">
<path d="M27.5856 36.9551L27.4006 37.0312L27.8282 38.0707L28.0132 37.9946L27.5856 36.9551Z" fill="white"/>
</g>
<g style="mix-blend-mode:overlay" opacity="0.4">
<path d="M29.0375 36.2733L28.8599 36.3653L29.3766 37.3634L29.5542 37.2715L29.0375 36.2733Z" fill="white"/>
</g>
<g style="mix-blend-mode:overlay" opacity="0.4">
<path d="M30.448 35.167L30.28 35.275L30.887 36.2191L31.055 36.1111L30.448 35.167Z" fill="white"/>
</g>
<g style="mix-blend-mode:overlay" opacity="0.4">
<path d="M31.7334 34.5452L31.5745 34.6666L32.2567 35.5599L32.4156 35.4385L31.7334 34.5452Z" fill="white"/>
</g>
<g style="mix-blend-mode:overlay" opacity="0.4">
<path d="M32.9598 33.5086L32.812 33.6434L33.5696 34.4737L33.7174 34.3389L32.9598 33.5086Z" fill="white"/>
</g>
<g style="mix-blend-mode:overlay" opacity="0.4">
<path d="M34.0881 32.3689L33.9526 32.516L34.7796 33.2773L34.9151 33.1301L34.0881 32.3689Z" fill="white"/>
</g>
<g style="mix-blend-mode:overlay" opacity="0.4">
<path d="M35.1145 31.1408L34.9924 31.2992L35.8826 31.9854L36.0047 31.827L35.1145 31.1408Z" fill="white"/>
</g>
<g style="mix-blend-mode:overlay" opacity="0.4">
<path d="M36.0307 29.8216L35.9229 29.9901L36.8695 30.596L36.9774 30.4276L36.0307 29.8216Z" fill="white"/>
</g>
<g style="mix-blend-mode:overlay" opacity="0.4">
<path d="M36.8279 28.4342L36.7351 28.6114L37.7308 29.1328L37.8236 28.9556L36.8279 28.4342Z" fill="white"/>
</g>
<g style="mix-blend-mode:overlay" opacity="0.4">
<path d="M37.5003 26.9793L37.4233 27.1639L38.4609 27.5962L38.5378 27.4116L37.5003 26.9793Z" fill="white"/>
</g>
<g style="mix-blend-mode:overlay" opacity="0.4">
<path d="M38.0425 25.4699L37.9819 25.6606L39.0532 26.0008L39.1137 25.8102L38.0425 25.4699Z" fill="white"/>
</g>
<g style="mix-blend-mode:overlay" opacity="0.4">
<path d="M38.4554 23.921L38.4116 24.1161L39.5084 24.3619L39.5522 24.1667L38.4554 23.921Z" fill="white"/>
</g>
<g style="mix-blend-mode:overlay" opacity="0.4">
<path d="M38.7268 22.3408L38.7002 22.5391L39.8142 22.6883L39.8408 22.4901L38.7268 22.3408Z" fill="white"/>
</g>
<g style="mix-blend-mode:overlay" opacity="0.4">
<path d="M38.8612 20.7429L38.8521 20.9427L39.9749 20.9942L39.984 20.7944L38.8612 20.7429Z" fill="white"/>
</g>
<g style="mix-blend-mode:overlay" opacity="0.4">
<path d="M39.9809 19.0908L38.8579 19.138L38.8663 19.3379L39.9893 19.2906L39.9809 19.0908Z" fill="white"/>
</g>
<g style="mix-blend-mode:overlay" opacity="0.4">
<path d="M39.8257 17.4012L38.7109 17.545L38.7365 17.7433L39.8513 17.5995L39.8257 17.4012Z" fill="white"/>
</g>
<g style="mix-blend-mode:overlay" opacity="0.4">
<path d="M39.526 15.7216L38.4282 15.9632L38.4712 16.1585L39.5689 15.917L39.526 15.7216Z" fill="white"/>
</g>
<g style="mix-blend-mode:overlay" opacity="0.4">
<path d="M39.0813 14.0859L38.0085 14.4215L38.0683 14.6123L39.141 14.2768L39.0813 14.0859Z" fill="white"/>
</g>
<g style="mix-blend-mode:overlay" opacity="0.4">
<path d="M38.4931 12.4864L37.4534 12.9134L37.5294 13.0984L38.5691 12.6714L38.4931 12.4864Z" fill="white"/>
</g>
<g style="mix-blend-mode:overlay" opacity="0.4">
<path d="M37.7704 10.9448L36.7725 11.4619L36.8645 11.6395L37.8625 11.1224L37.7704 10.9448Z" fill="white"/>
</g>
<g style="mix-blend-mode:overlay" opacity="0.4">
<path d="M36.9168 9.47589L35.9678 10.0782L36.0749 10.247L37.024 9.64475L36.9168 9.47589Z" fill="white"/>
</g>
<g style="mix-blend-mode:overlay" opacity="0.4">
<path d="M35.7962 7.94384L34.9082 8.62948L35.0302 8.78748L35.9182 8.10184L35.7962 7.94384Z" fill="white"/>
</g>
<g style="mix-blend-mode:overlay" opacity="0.4">
<path d="M34.8377 6.78106L34.0076 7.53883L34.1424 7.68655L34.9726 6.92878L34.8377 6.78106Z" fill="white"/>
</g>
<g style="mix-blend-mode:overlay" opacity="0.4">
<path d="M33.6324 5.58285L32.8713 6.40996L33.0185 6.54538L33.7796 5.71828L33.6324 5.58285Z" fill="white"/>
</g>
<g style="mix-blend-mode:overlay" opacity="0.4">
<path d="M32.3023 4.56026L31.6167 5.44822L31.7747 5.57022L32.4603 4.68226L32.3023 4.56026Z" fill="white"/>
</g>
<g style="mix-blend-mode:overlay" opacity="0.4">
<path d="M30.9283 3.52094L30.3223 4.46754L30.4907 4.57538L31.0968 3.62878L30.9283 3.52094Z" fill="white"/>
</g>
<g style="mix-blend-mode:overlay" opacity="0.4">
<path d="M29.455 2.67708L28.9336 3.67281L29.1108 3.76559L29.6322 2.76986L29.455 2.67708Z" fill="white"/>
</g>
<g style="mix-blend-mode:overlay" opacity="0.4">
<path d="M27.9104 1.96269L27.4783 3.00031L27.6629 3.0772L28.095 2.03958L27.9104 1.96269Z" fill="white"/>
</g>
<g style="mix-blend-mode:overlay" opacity="0.4">
<path d="M26.3097 1.38437L25.9695 2.45564L26.1601 2.51618L26.5003 1.44491L26.3097 1.38437Z" fill="white"/>
</g>
<g style="mix-blend-mode:overlay" opacity="0.4">
<path d="M24.6669 0.950217L24.4211 2.04702L24.6163 2.09075L24.8621 0.993948L24.6669 0.950217Z" fill="white"/>
</g>
<g style="mix-blend-mode:overlay" opacity="0.4">
<path d="M22.99 0.65908L22.8406 1.7731L23.0388 1.79969L23.1882 0.68567L22.99 0.65908Z" fill="white"/>
</g>
<g style="mix-blend-mode:overlay" opacity="0.4">
<path d="M21.2945 0.515634L21.2429 1.63845L21.4427 1.64763L21.4943 0.524811L21.2945 0.515634Z" fill="white"/>
</g>
</g>
</g>
</g>
<defs>
<linearGradient id="paint0_linear_4308_5651" x1="33.618" y1="4.902" x2="6.976" y2="35.564" gradientUnits="userSpaceOnUse">
<stop stop-color="#109CF4"/>
<stop offset="1" stop-color="#4063FB"/>
</linearGradient>
<clipPath id="clip0_4308_5651">
<rect width="40" height="40" fill="white" transform="translate(0.5)"/>
</clipPath>
</defs>
</svg>
